<svg width="38" height="38" viewBox="0 0 38 38" fill="none" xmlns="http://www.w3.org/2000/svg">
<g clip-path="url(#clip0_7_96)">
<path d="M11.2051 17.8957C10.6855 17.3761 9.84104 17.3761 9.32138 17.8957C8.80173 18.4154 8.80173 19.2598 9.32138 19.7795L15.4598 25.9179C15.7197 26.1778 16.0445 26.3077 16.4017 26.3077C16.4342 26.3077 16.4342 26.3077 16.4667 26.3077C16.8239 26.2752 17.1812 26.1128 17.441 25.8205L32.8034 7.40512C33.2581 6.85298 33.1932 6.00854 32.641 5.52136C32.0889 5.06666 31.2445 5.13162 30.7573 5.68375L16.3043 22.9949L11.2051 17.8957Z" fill="#17AB13"/>
<path d="M28.9385 3.02051C21.4685 -1.65641 11.8873 -0.552135 5.65137 5.68376C-1.6888 13.0239 -1.6888 25.0086 5.65137 32.3487C9.32145 36.0188 14.1608 37.8701 18.9676 37.8701C23.7744 37.8701 28.6138 36.0188 32.2838 32.3487C38.5522 26.0803 39.624 16.4667 34.9146 8.99658C34.5249 8.37949 33.7129 8.18462 33.0958 8.57436C32.4787 8.9641 32.2838 9.77607 32.6736 10.3932C36.7334 16.8239 35.7915 25.0735 30.4001 30.465C24.0992 36.7658 13.8035 36.7658 7.50265 30.465C1.2018 24.1641 1.2018 13.8684 7.50265 7.56752C12.8941 2.20855 21.1112 1.26667 27.542 5.26154C28.1591 5.65128 28.971 5.45641 29.3608 4.83932C29.7505 4.22222 29.5556 3.41026 28.9385 3.02051Z" fill="white"/>
</g>
<defs>
<clipPath id="clip0_7_96">
<rect width="38" height="38" fill="white"/>
</clipPath>
</defs>
</svg>
