<svg width="70" height="65" viewBox="0 0 70 65" fill="none" xmlns="http://www.w3.org/2000/svg">
<g filter="url(#filter0_d_7_78)">
<path d="M60.8792 29.0402C60.8792 29.0402 60.2863 29.7668 59.1132 30.9399C57.94 32.1131 36.3698 53.6823 36.3698 53.6823C35.991 54.0611 35.496 54.25 35 54.25C34.504 54.25 34.009 54.0611 33.6302 53.6823C33.6302 53.6823 12.06 32.1121 10.8868 30.939C9.71369 29.7658 9.12081 29.0392 9.12081 29.0392C7.14359 26.6842 5.9375 23.6607 5.9375 20.3438C5.9375 12.8534 12.0096 6.78125 19.5 6.78125C23.2452 6.78125 26.6358 8.29831 29.0897 10.7541L29.0984 10.7454L33.6302 15.2762C34.3868 16.0328 35.6132 16.0328 36.3698 15.2762L40.9016 10.7454L40.9103 10.7541C43.3642 8.29831 46.7548 6.78125 50.5 6.78125C57.9904 6.78125 64.0625 12.8534 64.0625 20.3438C64.0625 23.6607 62.8564 26.6842 60.8792 29.0402Z" fill="white"/>
<path d="M60.8792 29.0402C60.8792 29.0402 60.2863 29.7668 59.1132 30.9399C57.94 32.1131 36.3698 53.6823 36.3698 53.6823C35.991 54.0611 35.496 54.25 35 54.25C34.504 54.25 34.009 54.0611 33.6302 53.6823C33.6302 53.6823 12.06 32.1121 10.8868 30.939C9.71369 29.7658 9.12081 29.0392 9.12081 29.0392C7.14359 26.6842 5.9375 23.6607 5.9375 20.3438C5.9375 12.8534 12.0096 6.78125 19.5 6.78125C23.2452 6.78125 26.6358 8.29831 29.0897 10.7541L29.0984 10.7454L33.6302 15.2762C34.3868 16.0328 35.6132 16.0328 36.3698 15.2762L40.9016 10.7454L40.9103 10.7541C43.3642 8.29831 46.7548 6.78125 50.5 6.78125C57.9904 6.78125 64.0625 12.8534 64.0625 20.3438C64.0625 23.6607 62.8564 26.6842 60.8792 29.0402Z" fill="white"/>
<path d="M50.5 4.84375C46.2201 4.84375 42.3451 6.57878 39.5405 9.38428L35.6859 13.2215C35.3071 13.6003 34.6948 13.6003 34.3161 13.2215C34.3161 13.2215 30.4692 9.37556 30.4614 9.38428C27.6549 6.57878 23.7799 4.84375 19.5 4.84375C10.9392 4.84375 4 11.7829 4 20.3438C4 23.5774 4.992 26.5786 6.68634 29.0625C6.68634 29.0625 7.39741 30.1901 8.23828 31.03C9.07916 31.8699 32.2604 55.0521 32.2604 55.0521C33.017 55.8087 34.009 56.1875 35 56.1875C35.991 56.1875 36.983 55.8087 37.7396 55.0521C37.7396 55.0521 60.9218 31.8699 61.7617 31.03C62.6016 30.1901 63.3137 29.0625 63.3137 29.0625C65.008 26.5786 66 23.5774 66 20.3438C66 11.7829 59.0608 4.84375 50.5 4.84375ZM60.8792 29.0402C60.8792 29.0402 60.2863 29.7668 59.1132 30.9399C57.94 32.1131 36.3698 53.6823 36.3698 53.6823C35.991 54.0611 35.496 54.25 35 54.25C34.504 54.25 34.009 54.0611 33.6302 53.6823C33.6302 53.6823 12.06 32.1121 10.8868 30.939C9.71369 29.7658 9.12081 29.0392 9.12081 29.0392C7.14359 26.6842 5.9375 23.6607 5.9375 20.3438C5.9375 12.8534 12.0096 6.78125 19.5 6.78125C23.2452 6.78125 26.6358 8.29831 29.0897 10.7541L29.0984 10.7454L33.6302 15.2762C34.3868 16.0328 35.6132 16.0328 36.3698 15.2762L40.9016 10.7454L40.9103 10.7541C43.3642 8.29831 46.7548 6.78125 50.5 6.78125C57.9904 6.78125 64.0625 12.8534 64.0625 20.3438C64.0625 23.6607 62.8564 26.6842 60.8792 29.0402Z" fill="#394240"/>
<path d="M50.5 10.6562C49.9643 10.6562 49.5312 11.0893 49.5312 11.625C49.5312 12.1607 49.9643 12.5938 50.5 12.5938C54.7799 12.5938 58.25 16.0638 58.25 20.3438C58.25 20.8795 58.683 21.3125 59.2188 21.3125C59.7545 21.3125 60.1875 20.8795 60.1875 20.3438C60.1875 14.9943 55.8494 10.6562 50.5 10.6562Z" fill="#394240"/>
</g>
<defs>
<filter id="filter0_d_7_78" x="0" y="0" width="70" height="70" filterUnits="userSpaceOnUse" color-interpolation-filters="sRGB">
<feFlood flood-opacity="0" result="BackgroundImageFix"/>
<feColorMatrix in="SourceAlpha" type="matrix" values="0 0 0 0 0 0 0 0 0 0 0 0 0 0 0 0 0 0 127 0" result="hardAlpha"/>
<feOffset dy="4"/>
<feGaussianBlur stdDeviation="2"/>
<feComposite in2="hardAlpha" operator="out"/>
<feColorMatrix type="matrix" values="0 0 0 0 0 0 0 0 0 0 0 0 0 0 0 0 0 0 0.25 0"/>
<feBlend mode="normal" in2="BackgroundImageFix" result="effect1_dropShadow_7_78"/>
<feBlend mode="normal" in="SourceGraphic" in2="effect1_dropShadow_7_78" result="shape"/>
</filter>
</defs>
</svg>
