<svg width="55" height="55" viewBox="0 0 55 55" fill="none" xmlns="http://www.w3.org/2000/svg">
<g clip-path="url(#clip0_7_70)">
<path fill-rule="evenodd" clip-rule="evenodd" d="M29.3334 26.004V16.5C29.3334 15.488 28.5139 14.6667 27.5001 14.6667C26.4862 14.6667 25.6667 15.488 25.6667 16.5V26.004C23.5364 26.7612 22.0001 28.7742 22.0001 31.1667C22.0001 34.2045 24.4622 36.6667 27.5001 36.6667C30.5379 36.6667 33.0001 34.2045 33.0001 31.1667C33.0001 28.7742 31.4637 26.7612 29.3334 26.004ZM27.5001 51.3333C16.3626 51.3333 7.33341 42.3042 7.33341 31.1667C7.33341 20.0292 16.3626 11 27.5001 11C38.6376 11 47.6667 20.0292 47.6667 31.1667C47.6667 42.3042 38.6376 51.3333 27.5001 51.3333ZM29.3151 7.42498C29.3169 7.39198 29.3334 7.36633 29.3334 7.33333V3.66667H36.6667C37.6806 3.66667 38.5001 2.84717 38.5001 1.83333C38.5001 0.8195 37.6806 0 36.6667 0H18.3334C17.3196 0 16.5001 0.8195 16.5001 1.83333C16.5001 2.84717 17.3196 3.66667 18.3334 3.66667H25.6667V7.33333C25.6667 7.36633 25.6833 7.39198 25.6851 7.42498C13.3743 8.35631 3.66675 18.6157 3.66675 31.1667C3.66675 44.33 14.3367 55 27.5001 55C40.6634 55 51.3334 44.33 51.3334 31.1667C51.3334 18.6157 41.6259 8.35631 29.3151 7.42498Z" fill="white"/>
</g>
<defs>
<clipPath id="clip0_7_70">
<rect width="55" height="55" fill="white"/>
</clipPath>
</defs>
</svg>
